<svg xmlns="http://www.w3.org/2000/svg" viewBox="0 0 64 64" fill="none">
  <g stroke="#FBBF24" stroke-width="3.5" stroke-linecap="round">
    <line x1="24" y1="4" x2="24" y2="11"/>
    <line x1="4" y1="24" x2="11" y2="24"/>
    <line x1="9" y1="9" x2="14" y2="14"/>
    <line x1="39" y1="9" x2="34" y2="14"/>
  </g>
  <circle cx="24" cy="24" r="10" fill="#FBBF24"/>
  <path d="M50 50H26c-5.5 0-10-4.5-10-10s4.5-10 10-10c0.5 0 1 0 1.5 0.1C29.4 24.8 34.5 21.5 40.5 21.5c7.5 0 13.5 6 13.5 13.5 0 0.5 0 1-0.1 1.5C57 38 60 41.4 60 45.5c0 2.5-2 4.5-4.5 4.5z" fill="#E2E8F0"/>
</svg>
