<svg xmlns="http://www.w3.org/2000/svg" viewBox="0 0 64 64" fill="none">
  <path d="M46 38H18c-6.6 0-12-5.4-12-12s5.4-12 12-12c0.6 0 1.2 0 1.8 0.1C22.3 8.2 28.5 4 35.5 4c9.1 0 16.5 7.4 16.5 16.5 0 0.6 0 1.2-0.1 1.8C56.5 23 60 27.1 60 32c0 3.3-2.7 6-6 6z" fill="#E2E8F0"/>
  <g stroke="#FFFFFF" stroke-width="2.5" stroke-linecap="round">
    <g transform="translate(22,50)">
      <line x1="0" y1="-5" x2="0" y2="5"/>
      <line x1="-4.3" y1="-2.5" x2="4.3" y2="2.5"/>
      <line x1="-4.3" y1="2.5" x2="4.3" y2="-2.5"/>
    </g>
    <g transform="translate(34,54)">
      <line x1="0" y1="-5" x2="0" y2="5"/>
      <line x1="-4.3" y1="-2.5" x2="4.3" y2="2.5"/>
      <line x1="-4.3" y1="2.5" x2="4.3" y2="-2.5"/>
    </g>
    <g transform="translate(46,50)">
      <line x1="0" y1="-5" x2="0" y2="5"/>
      <line x1="-4.3" y1="-2.5" x2="4.3" y2="2.5"/>
      <line x1="-4.3" y1="2.5" x2="4.3" y2="-2.5"/>
    </g>
  </g>
</svg>
